<svg width="27" height="29" viewBox="0 0 27 29" fill="none" xmlns="http://www.w3.org/2000/svg">
<path id="Vector" d="M11.3007 0C9.6056 0 8.28718 1.38263 8.28718 3.13397C8.28718 4.88531 9.6056 6.26794 11.3007 6.26794C12.9958 6.26794 14.3142 4.88531 14.3142 3.13397C14.3142 1.38263 12.9958 0 11.3007 0ZM11.3007 1.19828C12.3366 1.19828 13.09 2.05552 13.09 3.13397C13.09 4.1479 12.2707 5.06966 11.3007 5.06966C10.2648 5.06966 9.51142 4.21242 9.51142 3.13397C9.51142 2.12004 10.3213 1.19828 11.3007 1.19828V1.19828ZM0 25.1639C0 26.3622 0.423776 27.3761 1.41259 28.2057C2.44849 29.0722 3.67273 28.9984 3.67273 28.9984H23.449C24.2588 28.9984 25.3324 28.6113 26.18 27.5236C27.0558 26.5097 26.9993 25.1271 26.9993 25.1271V7.6137C26.9993 7.17126 26.8863 7.00534 26.227 7.00534C25.5678 7.00534 25.5113 7.28187 25.5113 7.60449V25.1178C25.4925 25.422 25.436 26.224 24.7391 26.8692C23.9763 27.5052 23.2324 27.4222 23.2324 27.4222C23.2324 27.4222 4.39786 27.4222 3.45613 27.3946C3.09828 27.3301 2.51441 27.201 1.94937 26.4728C1.422 25.7354 1.52559 24.8137 1.52559 24.8137V7.30031C1.52559 6.83021 1.28075 6.65508 0.772215 6.65508C0.263683 6.65508 0 6.83021 0 7.245V25.1639ZM16.9511 8.57233C15.821 8.81199 14.6909 8.95947 12.5249 10.9689C10.359 12.9968 8.75804 12.9046 7.15711 12.8124C5.55618 12.7202 3.86107 11.2454 3.57856 10.8767C3.23012 10.5172 2.63683 10.7569 2.44849 10.9965C2.28839 11.2362 2.28839 11.651 2.56149 12.0105C3.87991 13.2088 5.10415 14.1305 7.45846 14.3149C9.81278 14.5361 12.0729 13.4945 13.5797 12.0105C15.0864 10.5357 15.8398 10.2591 16.9699 10.0748C19.7009 9.65078 21.3018 10.7016 22.2435 11.3652C23.2794 12.4714 23.562 12.158 23.8445 11.8446C24.4095 11.1164 23.6091 10.5541 22.7144 9.90888C20.831 8.71059 19.0417 8.24972 16.9699 8.61842L16.9511 8.57233ZM7.5338 15.8542C6.30956 15.8542 5.36783 16.8681 5.36783 18.1586C5.36783 19.449 6.30956 20.463 7.5338 20.463C8.75804 20.463 9.69977 19.449 9.69977 18.1586C9.69977 16.8681 8.75804 15.8542 7.5338 15.8542ZM19.7762 16.6469C18.1753 16.6469 16.8569 18.0295 16.8569 19.6887C16.8569 21.3479 18.1753 22.7305 19.7762 22.7305C21.3772 22.7305 22.6956 21.3479 22.6956 19.6887C22.6956 18.0295 21.3772 16.6469 19.7762 16.6469ZM19.7762 18.1217C20.6049 18.1217 21.283 18.8315 21.283 19.6887C21.283 20.5644 20.6049 21.2557 19.7762 21.2557C18.9475 21.2557 18.2695 20.5459 18.2695 19.6887C18.2695 18.813 18.9475 18.1217 19.7762 18.1217Z" fill="white"/>
</svg>
