<svg xmlns="http://www.w3.org/2000/svg">
  <style>:root svg:not(:target) { display: none }</style>

  <svg id="program-slim" viewBox="0 0 36 50" fill="none" xmlns="http://www.w3.org/2000/svg">
    <g id="cat-slim" clip-path="url(#clip0_135_3256)">
      <path id="Vector" d="M28.2034 0H28.008C27.6778 0.187081 27.415 0.473924 27.2571 0.819588C26.968 1.37738 26.7453 1.96735 26.5937 2.57732C26.5612 2.76073 26.4688 2.92811 26.331 3.05315C26.1932 3.17818 26.0179 3.25377 25.8326 3.26804C25.2658 3.36597 24.7288 3.59243 24.2626 3.93012C23.7965 4.26781 23.4135 4.7078 23.1429 5.21649C22.7708 5.87697 22.4526 6.5665 22.1914 7.27835C21.4611 9.17526 20.9006 11.134 20.2114 13.0464C19.8874 13.9175 19.872 13.9175 18.8949 13.9175C17.7274 13.9175 17.8097 13.7371 17.7943 15.0258C17.7943 15.433 17.9177 15.6392 18.3497 15.6186C18.4834 15.6186 18.684 15.5515 18.7354 15.7268C18.7869 15.9021 18.612 15.9794 18.5091 16.0825C17.8994 16.7029 17.1276 17.1388 16.2823 17.3402C15.3051 17.6031 14.3074 17.8093 13.356 18.1289C10.9131 18.9485 8.65543 20.0928 6.89657 22.0309C5.86814 23.2347 5.04455 24.6001 4.45886 26.0722C2.57143 30.5258 1.656 35.2165 0.946286 39.9536C0.612 42.1753 0.375429 44.4072 0.195429 46.6546C0.102857 47.7577 0 48.8763 0 50H17.1411C17.1696 49.7731 17.1283 49.5429 17.0229 49.3402C16.858 48.9289 16.5901 48.5672 16.2451 48.29C15.9 48.0128 15.4895 47.8295 15.0531 47.7577C14.6931 47.6753 14.652 47.567 14.8731 47.2835C15.2338 46.801 15.5103 46.2607 15.6909 45.6856C16.5291 43.2062 16.8531 40.6186 17.2594 38.0567C17.4889 36.0999 18.0894 34.2051 19.0286 32.4742C19.7611 31.2002 20.7382 30.0842 21.9034 29.1907C22.3303 28.866 22.3457 28.866 22.4177 29.4175C22.4691 29.7835 22.4794 30.1598 22.5051 30.5309C22.6595 32.9662 22.6285 35.4097 22.4126 37.8402C22.2184 39.7242 22.1926 41.6217 22.3354 43.5103C22.5399 45.7029 22.9304 47.8739 23.5029 50H30.3429C30.2536 49.442 29.9973 48.9243 29.6078 48.5156C29.2184 48.1069 28.7143 47.8264 28.1623 47.7113C27.5177 47.6087 26.8587 47.6438 26.2286 47.8144C25.92 47.8866 25.7914 47.8144 25.7657 47.4794C25.5529 44.7505 25.7261 42.0051 26.28 39.3247C26.966 36.2304 27.4912 33.1025 27.8537 29.9536C27.9887 28.6819 28.3881 27.4528 29.0263 26.3454C29.6383 25.2526 30.1731 24.1186 30.7749 23.0206C31.0138 22.6214 31.1575 22.1723 31.195 21.7083C31.2325 21.2443 31.1626 20.7779 30.9909 20.3454C30.852 19.9794 30.7183 19.6082 30.5486 19.2577C30.0343 18.2526 29.52 17.2577 29.0469 16.2423C28.7949 15.7268 28.8514 15.6649 29.412 15.6495C30.2503 15.6495 30.2503 15.6495 30.2657 14.8041C30.2657 14.6907 30.2657 14.5773 30.2657 14.4639C30.2657 14.1082 30.132 13.9124 29.7514 13.9485C29.4943 13.9485 29.2371 13.9485 28.9697 13.9485C28.6149 13.9485 28.512 13.799 28.5994 13.433C28.7729 12.838 29.1142 12.306 29.5823 11.9009C30.0503 11.4958 30.6252 11.2349 31.2377 11.1495C32.3772 11.0505 33.5251 11.1252 34.6423 11.3711C34.7712 11.4118 34.9109 11.4001 35.0312 11.3383C35.1515 11.2766 35.2427 11.1699 35.2851 11.0412C35.4909 10.5258 35.7171 10.0103 35.9486 9.49484C36.001 9.40339 36.0242 9.29801 36.015 9.19293C36.0058 9.08785 35.9647 8.98812 35.8971 8.90722C34.2514 6.81443 32.4669 4.86082 30.0343 3.60825C29.9168 3.55754 29.8138 3.47814 29.7347 3.3773C29.6557 3.27646 29.6031 3.15738 29.5817 3.03093C29.444 2.29408 29.225 1.57487 28.9286 0.886598C28.7895 0.519904 28.5349 0.20865 28.2034 0V0Z" fill="black"/>
    </g>
    <defs>
      <clipPath id="clip0_135_3256">
        <rect width="36" height="50" fill="white"/>
      </clipPath>
    </defs>
  </svg>

  <svg id="program-pro-mobile" viewBox="0 0 67 28" fill="none" xmlns="http://www.w3.org/2000/svg">
    <g id="cat-pro" clip-path="url(#clip0_135_3258)">
      <path id="Vector" d="M60.5591 2.87843C61.1364 1.95997 61.9036 1.17573 62.8091 0.578427C63.3091 0.228427 63.6091 0.228427 63.9091 0.878427C64.3091 1.82843 64.6591 2.82843 64.3591 3.87843C64.3045 4.05651 64.2942 4.24523 64.3291 4.4282C64.3639 4.61117 64.4429 4.78288 64.5591 4.92843C64.8591 5.32843 65.1091 5.72843 65.3591 6.07843C65.6994 6.51031 65.9201 7.02408 65.9991 7.5682C66.078 8.11231 66.0125 8.66763 65.8091 9.17843C65.6256 9.67433 65.5908 10.213 65.7091 10.7284C65.809 11.2234 65.809 11.7334 65.7091 12.2284C65.6687 12.5991 65.5187 12.9494 65.2782 13.2344C65.0377 13.5194 64.7177 13.7262 64.3591 13.8284C63.7196 13.9501 63.1488 14.3069 62.7591 14.8284C62.7119 14.9052 62.6457 14.9686 62.5669 15.0124C62.488 15.0562 62.3993 15.0789 62.3091 15.0784C61.7091 15.1784 60.2091 13.8284 60.2091 13.2284V12.9284C60.2591 11.1284 60.1591 10.9784 58.5091 10.2284C58.1638 10.1066 57.8544 9.90037 57.6091 9.62843C57.3091 9.22843 56.9091 9.27843 56.4591 9.42843C56.0091 9.57843 55.7591 9.87843 55.8091 10.3784C55.9599 11.5889 56.0101 12.8097 55.9591 14.0284C55.9624 14.1675 55.9966 14.3041 56.0591 14.4284C57.6091 16.6784 58.2091 19.3284 58.9591 21.8784C59.5591 23.8284 60.6591 24.8784 62.6591 25.0284C62.9792 25.054 63.2968 25.1041 63.6091 25.1784C64.02 25.2444 64.4017 25.4322 64.7048 25.7174C65.0078 26.0027 65.2183 26.3723 65.3091 26.7784C65.6591 27.8284 65.4591 28.0784 64.4091 28.0784H61.1591C60.7384 28.0997 60.3259 27.9562 60.0091 27.6784C59.5031 27.2514 58.9282 26.9132 58.3091 26.6784C57.6247 26.4258 57.0323 25.9728 56.6091 25.3784C56.0234 24.5602 55.3531 23.806 54.6091 23.1284C53.2091 21.6784 51.7091 20.2784 50.4091 18.7784C49.4195 17.7563 48.8486 16.4006 48.8091 14.9784C48.8091 14.5284 48.7091 14.3284 48.2091 14.5284C48.0594 14.6234 47.8864 14.6753 47.7091 14.6784C46.3091 14.6784 45.6091 15.5284 45.1091 16.7784C44.6591 17.8284 44.0591 18.8284 43.5091 19.8784C43.1972 20.5357 43.0269 21.2511 43.0091 21.9784C43.0091 23.1784 43.3091 23.5784 44.4091 23.9784C45.1091 24.2284 45.7591 24.4784 46.1091 25.1784C46.5091 25.9784 46.4091 26.1784 45.5591 26.2284H42.1591C41.9631 26.2478 41.7659 26.2052 41.5955 26.1065C41.425 26.0078 41.2899 25.8581 41.2091 25.6784L40.3091 24.1784C40.0438 23.7871 39.874 23.3389 39.8132 22.87C39.7524 22.4011 39.8024 21.9245 39.9591 21.4784C40.1755 20.6102 40.1926 19.7042 40.0091 18.8284C39.8831 18.2185 39.8939 17.5882 40.0409 16.9829C40.1879 16.3777 40.4674 15.8126 40.8591 15.3284C41.1591 14.9784 41.1591 14.8284 40.6591 14.7284C38.6146 14.2941 36.6325 13.6054 34.7591 12.6784C34.7459 12.6784 34.7331 12.6732 34.7238 12.6638C34.7144 12.6544 34.7091 12.6417 34.7091 12.6284C33.1091 12.0284 32.8091 12.1284 32.3591 13.7784C31.9591 15.1784 31.5591 16.5784 31.2591 18.0284C30.9091 19.6284 31.3091 21.1284 31.8091 22.6284C32.0091 23.2284 32.6091 23.1784 33.0591 23.3284C34.0591 23.6284 34.9091 24.0284 35.3091 25.0784C35.6591 25.8784 35.6091 25.9784 34.7591 25.9784C33.9091 25.9784 33.0591 25.9284 32.1591 25.9784C31.3997 25.9922 30.6584 25.7451 30.0591 25.2784C27.6591 23.6784 26.9591 21.2284 26.7591 18.5784C26.6591 16.9284 25.7591 15.6284 24.7091 14.3784C24.5091 14.1284 24.3091 14.0284 24.0091 14.2284C22.9359 14.8202 21.8153 15.3219 20.6591 15.7284C18.2462 16.5804 16.1289 18.1077 14.5591 20.1284C13.9729 20.8659 13.5933 21.746 13.4591 22.6784C13.3091 23.5784 13.5591 23.9784 14.4591 24.2284C15.3591 24.4784 15.8091 24.9784 15.9091 25.9284C15.9591 26.3284 15.8091 26.5284 15.4091 26.5284H11.3591C11.2266 26.519 11.0982 26.4778 10.9851 26.4081C10.8719 26.3385 10.7772 26.2425 10.7091 26.1284C10.081 25.3508 9.74494 24.3779 9.75912 23.3784C9.73288 21.6509 9.88366 19.9252 10.2091 18.2284C10.2759 17.7203 10.4656 17.2361 10.7618 16.8178C11.0581 16.3996 11.4519 16.06 11.9091 15.8284C14.8591 14.4284 16.4091 11.7784 17.8091 9.02843C18.1091 8.47843 17.8591 8.37843 17.3591 8.42843C15.9598 8.62269 14.634 9.17368 13.5091 10.0284C12.0362 11.1029 10.6487 12.2897 9.35912 13.5784C7.98394 14.9753 6.16046 15.8427 4.20911 16.0284C0.559114 16.2284 -1.14089 14.1784 -0.990885 10.8784C-0.957354 9.75323 -0.533061 8.67482 0.209115 7.82843C0.467126 7.49393 0.818981 7.24392 1.21975 7.11033C1.62052 6.97674 2.05201 6.96563 2.45912 7.07843C3.20912 7.27843 3.40911 7.67843 3.10911 8.42843C2.95911 8.72843 2.75911 8.97843 2.60911 9.27843C2.39341 9.58491 2.22488 9.92198 2.10911 10.2784C1.55911 11.7784 2.30911 12.8284 3.85911 12.9784C5.50911 13.1284 6.85912 12.4284 8.10912 11.4284C9.61508 10.2226 10.9595 8.82775 12.1091 7.27843C12.9687 6.14713 14.0512 5.20407 15.2895 4.50749C16.5279 3.81091 17.8959 3.37559 19.3091 3.22843C20.4591 3.07843 21.4591 2.57843 22.5591 2.27843C24.6164 1.65123 26.7586 1.34761 28.9091 1.37843C29.9052 1.41991 30.8974 1.23172 31.8091 0.828427C34.2591 -0.171573 36.8091 -0.171573 39.3591 0.328427C41.3591 0.728427 43.3591 1.22843 45.3091 1.72843C46.4696 1.94467 47.6629 1.91057 48.8091 1.62843C51.0034 1.07219 53.248 0.737189 55.5091 0.628427C56.9904 0.55636 58.4667 0.848196 59.8091 1.47843C60.8091 1.92843 60.8091 1.92843 60.5591 2.87843Z" fill="black"/>
    </g>
    <defs>
      <clipPath id="clip0_135_3258">
        <rect width="67" height="28" fill="white"/>
      </clipPath>
    </defs>
  </svg>

  <svg id="program-pro" viewBox="0 0 268 112" fill="none" xmlns="http://www.w3.org/2000/svg">
    <path d="M246.236 11.5137C248.545 7.83987 251.614 4.70291 255.236 2.31371C257.236 0.913709 258.436 0.913708 259.636 3.51371C261.236 7.31371 262.636 11.3137 261.436 15.5137C261.218 16.226 261.177 16.9809 261.316 17.7128C261.456 18.4447 261.772 19.1315 262.236 19.7137C263.436 21.3137 264.436 22.9137 265.436 24.3137C266.797 26.0412 267.68 28.0963 267.996 30.2728C268.312 32.4492 268.05 34.6705 267.236 36.7137C266.502 38.6973 266.363 40.8522 266.836 42.9137C267.236 44.8937 267.236 46.9337 266.836 48.9137C266.675 50.3965 266.075 51.7975 265.113 52.9375C264.151 54.0775 262.871 54.9048 261.436 55.3137C258.878 55.8005 256.595 57.2275 255.036 59.3137C254.848 59.6209 254.583 59.8743 254.267 60.0495C253.952 60.2246 253.597 60.3156 253.236 60.3137C250.836 60.7137 244.836 55.3137 244.836 52.9137V51.7137C245.036 44.5137 244.636 43.9137 238.036 40.9137C236.655 40.4265 235.417 39.6015 234.436 38.5137C233.236 36.9137 231.636 37.1137 229.836 37.7137C228.036 38.3137 227.036 39.5137 227.236 41.5137C227.84 46.3554 228.04 51.2388 227.836 56.1137C227.85 56.6701 227.986 57.2165 228.236 57.7137C234.436 66.7137 236.836 77.3137 239.836 87.5137C242.236 95.3137 246.636 99.5137 254.636 100.114C255.917 100.216 257.187 100.416 258.436 100.714C260.08 100.978 261.607 101.729 262.819 102.87C264.031 104.011 264.873 105.489 265.236 107.114C266.636 111.314 265.836 112.314 261.636 112.314H248.636C246.953 112.399 245.303 111.825 244.036 110.714C242.012 109.005 239.713 107.653 237.236 106.714C234.499 105.703 232.129 103.891 230.436 101.514C228.094 98.2407 225.412 95.224 222.436 92.5137C216.836 86.7137 210.836 81.1137 205.636 75.1137C201.678 71.0253 199.395 65.6023 199.236 59.9137C199.236 58.1137 198.836 57.3137 196.836 58.1137C196.238 58.4937 195.546 58.7012 194.836 58.7137C189.236 58.7137 186.436 62.1137 184.436 67.1137C182.636 71.3137 180.236 75.3137 178.036 79.5137C176.789 82.1428 176.108 85.0046 176.036 87.9137C176.036 92.7137 177.236 94.3137 181.636 95.9137C184.436 96.9137 187.036 97.9137 188.436 100.714C190.036 103.914 189.636 104.714 186.236 104.914H172.636C171.852 104.991 171.064 104.821 170.382 104.426C169.7 104.031 169.16 103.432 168.836 102.714L165.236 96.7137C164.175 95.1482 163.496 93.3557 163.253 91.4801C163.01 89.6045 163.21 87.6981 163.836 85.9137C164.702 82.4407 164.77 78.8169 164.036 75.3137C163.532 72.8739 163.576 70.3527 164.164 67.9318C164.752 65.5108 165.869 63.2505 167.436 61.3137C168.636 59.9137 168.636 59.3137 166.636 58.9137C158.458 57.1765 150.53 54.4217 143.036 50.7137C142.983 50.7137 142.933 50.6926 142.895 50.6551C142.858 50.6176 142.836 50.5667 142.836 50.5137C136.436 48.1137 135.236 48.5137 133.436 55.1137C131.836 60.7137 130.236 66.3137 129.036 72.1137C127.636 78.5137 129.236 84.5137 131.236 90.5137C132.036 92.9137 134.436 92.7137 136.236 93.3137C140.236 94.5137 143.636 96.1137 145.236 100.314C146.636 103.514 146.436 103.914 143.036 103.914C139.636 103.914 136.236 103.714 132.636 103.914C129.599 103.969 126.634 102.98 124.236 101.114C114.636 94.7137 111.836 84.9137 111.036 74.3137C110.636 67.7137 107.036 62.5137 102.836 57.5137C102.036 56.5137 101.236 56.1137 100.036 56.9137C95.7434 59.2808 91.2614 61.2877 86.6365 62.9137C76.985 66.3217 68.5157 72.4306 62.2365 80.5137C59.8918 83.4637 58.3732 86.9839 57.8365 90.7137C57.2365 94.3137 58.2365 95.9137 61.8365 96.9137C65.4365 97.9137 67.2365 99.9137 67.6365 103.714C67.8365 105.314 67.2365 106.114 65.6365 106.114H49.4365C48.9063 106.076 48.393 105.911 47.9403 105.632C47.4876 105.354 47.1089 104.97 46.8365 104.514C44.3242 101.403 42.9798 97.5116 43.0365 93.5137C42.9315 86.6036 43.5346 79.7009 44.8365 72.9137C45.1034 70.8811 45.8623 68.9443 47.0473 67.2714C48.2323 65.5984 49.8075 64.2399 51.6365 63.3137C63.4365 57.7137 69.6365 47.1137 75.2365 36.1137C76.4365 33.9137 75.4365 33.5137 73.4365 33.7137C67.8391 34.4908 62.5358 36.6947 58.0365 40.1137C52.1448 44.4114 46.5949 49.1589 41.4365 54.3137C35.9358 59.901 28.6418 63.3709 20.8365 64.1137C6.23646 64.9137 -0.56354 56.7137 0.0364599 43.5137C0.170585 39.0129 1.86775 34.6993 4.83646 31.3137C5.8685 29.9757 7.27593 28.9757 8.87899 28.4413C10.4821 27.907 12.208 27.8625 13.8365 28.3137C16.8365 29.1137 17.6365 30.7137 16.4365 33.7137C15.8365 34.9137 15.0365 35.9137 14.4365 37.1137C13.5737 38.3396 12.8995 39.6879 12.4365 41.1137C10.2365 47.1137 13.2365 51.3137 19.4365 51.9137C26.0365 52.5137 31.4365 49.7137 36.4365 45.7137C42.4603 40.8902 47.8379 35.311 52.4365 29.1137C55.875 24.5885 60.2046 20.8163 65.1581 18.03C70.1116 15.2436 75.5837 13.5024 81.2365 12.9137C85.8365 12.3137 89.8365 10.3137 94.2365 9.11371C102.465 6.60492 111.034 5.39042 119.636 5.51371C123.621 5.67964 127.59 4.9269 131.236 3.31371C141.036 -0.686291 151.236 -0.686292 161.436 1.31371C169.436 2.91371 177.436 4.91371 185.236 6.91371C189.878 7.77866 194.651 7.64229 199.236 6.51371C208.014 4.28878 216.992 2.94875 226.036 2.51371C231.961 2.22544 237.867 3.39278 243.236 5.91371C247.236 7.71371 247.236 7.71371 246.236 11.5137Z" fill="black"/>
  </svg>


  <svg id="arrow" viewBox="0 0 32 12" fill="none" xmlns="http://www.w3.org/2000/svg">
    <line y1="6" x2="26" y2="6" stroke="black" stroke-width="2"/>
    <path d="M32 6L25.25 11.1962L25.25 0.803848L32 6Z" fill="black"/>
  </svg>

  <svg id="nutrition" viewBox="0 0 25 28" fill="none" xmlns="http://www.w3.org/2000/svg">
    <path id="Vector" d="M24.8438 0.767C24.7434 0.317 24.3647 0 23.9325 0C23.9306 0 23.9288 0 23.9269 0C18.9891 0.033 6.98156 0.916 2.13375 8.38C-0.384376 12.258 -0.600938 17.293 1.48969 23.345C1.50562 23.392 1.53844 23.424 1.56 23.467C0.812812 25.44 0.523125 26.753 0.515624 26.79C0.406875 27.33 0.730312 27.862 1.23656 27.978C1.30219 27.993 1.36781 28 1.43344 28C1.86562 28 2.25469 27.679 2.34937 27.21C2.36906 27.108 4.75781 16.837 13.2028 10.832C13.6341 10.526 13.7503 9.905 13.4625 9.445C13.1747 8.985 12.5934 8.86 12.1622 9.168C7.37344 12.573 4.42406 17.176 2.68969 20.824C1.44844 16.246 1.77375 12.447 3.67594 9.519C7.41937 3.755 16.2984 2.365 21.6581 2.071C20.505 3.872 19.245 7.174 19.245 13C19.245 16.12 18.4153 18.522 16.7803 20.14C14.1591 22.731 9.90094 22.974 6.78656 22.724C6.26906 22.679 5.82 23.095 5.78062 23.646C5.74125 24.196 6.12844 24.676 6.64406 24.718C7.2675 24.769 7.93313 24.8 8.625 24.8C11.7956 24.8 15.4941 24.137 18.0544 21.606C20.0888 19.595 21.12 16.7 21.12 13.001C21.12 3.902 24.3356 1.905 24.3516 1.896C24.7416 1.687 24.9459 1.219 24.8438 0.767Z" fill="white"/>
  </svg>

  <svg id="powder" viewBox="0 0 27 29" fill="none" xmlns="http://www.w3.org/2000/svg">
    <path id="Vector" d="M11.3007 0C9.6056 0 8.28718 1.38263 8.28718 3.13397C8.28718 4.88531 9.6056 6.26794 11.3007 6.26794C12.9958 6.26794 14.3142 4.88531 14.3142 3.13397C14.3142 1.38263 12.9958 0 11.3007 0ZM11.3007 1.19828C12.3366 1.19828 13.09 2.05552 13.09 3.13397C13.09 4.1479 12.2707 5.06966 11.3007 5.06966C10.2648 5.06966 9.51142 4.21242 9.51142 3.13397C9.51142 2.12004 10.3213 1.19828 11.3007 1.19828V1.19828ZM0 25.1639C0 26.3622 0.423776 27.3761 1.41259 28.2057C2.44849 29.0722 3.67273 28.9984 3.67273 28.9984H23.449C24.2588 28.9984 25.3324 28.6113 26.18 27.5236C27.0558 26.5097 26.9993 25.1271 26.9993 25.1271V7.6137C26.9993 7.17126 26.8863 7.00534 26.227 7.00534C25.5678 7.00534 25.5113 7.28187 25.5113 7.60449V25.1178C25.4925 25.422 25.436 26.224 24.7391 26.8692C23.9763 27.5052 23.2324 27.4222 23.2324 27.4222C23.2324 27.4222 4.39786 27.4222 3.45613 27.3946C3.09828 27.3301 2.51441 27.201 1.94937 26.4728C1.422 25.7354 1.52559 24.8137 1.52559 24.8137V7.30031C1.52559 6.83021 1.28075 6.65508 0.772215 6.65508C0.263683 6.65508 0 6.83021 0 7.245V25.1639ZM16.9511 8.57233C15.821 8.81199 14.6909 8.95947 12.5249 10.9689C10.359 12.9968 8.75804 12.9046 7.15711 12.8124C5.55618 12.7202 3.86107 11.2454 3.57856 10.8767C3.23012 10.5172 2.63683 10.7569 2.44849 10.9965C2.28839 11.2362 2.28839 11.651 2.56149 12.0105C3.87991 13.2088 5.10415 14.1305 7.45846 14.3149C9.81278 14.5361 12.0729 13.4945 13.5797 12.0105C15.0864 10.5357 15.8398 10.2591 16.9699 10.0748C19.7009 9.65078 21.3018 10.7016 22.2435 11.3652C23.2794 12.4714 23.562 12.158 23.8445 11.8446C24.4095 11.1164 23.6091 10.5541 22.7144 9.90888C20.831 8.71059 19.0417 8.24972 16.9699 8.61842L16.9511 8.57233ZM7.5338 15.8542C6.30956 15.8542 5.36783 16.8681 5.36783 18.1586C5.36783 19.449 6.30956 20.463 7.5338 20.463C8.75804 20.463 9.69977 19.449 9.69977 18.1586C9.69977 16.8681 8.75804 15.8542 7.5338 15.8542ZM19.7762 16.6469C18.1753 16.6469 16.8569 18.0295 16.8569 19.6887C16.8569 21.3479 18.1753 22.7305 19.7762 22.7305C21.3772 22.7305 22.6956 21.3479 22.6956 19.6887C22.6956 18.0295 21.3772 16.6469 19.7762 16.6469ZM19.7762 18.1217C20.6049 18.1217 21.283 18.8315 21.283 19.6887C21.283 20.5644 20.6049 21.2557 19.7762 21.2557C18.9475 21.2557 18.2695 20.5459 18.2695 19.6887C18.2695 18.813 18.9475 18.1217 19.7762 18.1217Z" fill="white"/>
  </svg>

  <svg id="eat" viewBox="0 0 26 30" fill="none" xmlns="http://www.w3.org/2000/svg">
    <g id="icon_eat">
      <path id="Knife" fill-rule="evenodd" clip-rule="evenodd" d="M19.1173 0.0761497C19.491 -0.0786313 19.9211 0.00692445 20.2071 0.292922C21.1156 1.20142 22.3038 3.17065 23.2659 6.21082C24.2373 9.28039 25 13.5081 25 19C25 19.5523 24.5523 20 24 20H20.5V29C20.5 29.5523 20.0523 30 19.5 30C18.9477 30 18.5 29.5523 18.5 29V1.00003C18.5 0.595567 18.7436 0.230931 19.1173 0.0761497ZM20.5 18H22.9912C22.9053 13.1836 22.2051 9.48755 21.3591 6.81424C21.0807 5.93457 20.7885 5.1715 20.5 4.51895V18Z" fill="white"/>
      <g id="Fork">
        <path fill-rule="evenodd" clip-rule="evenodd" d="M6.5 0C7.05228 0 7.5 0.447715 7.5 1V29C7.5 29.5523 7.05228 30 6.5 30C5.94772 30 5.5 29.5523 5.5 29V1C5.5 0.447715 5.94772 0 6.5 0Z" fill="white"/>
        <path fill-rule="evenodd" clip-rule="evenodd" d="M2 0C2.55228 0 3 0.447715 3 1V6.5C3 7.05686 3.19203 7.81518 3.70088 8.41656C4.18001 8.98281 5.01446 9.5 6.49993 9.5C7.05221 9.5 7.49993 9.94771 7.49993 10.5C7.49993 11.0523 7.05221 11.5 6.49993 11.5C4.48547 11.5 3.06995 10.7672 2.1741 9.70844C1.30797 8.68482 1 7.44314 1 6.5V1C1 0.447715 1.44772 0 2 0Z" fill="white"/>
        <path fill-rule="evenodd" clip-rule="evenodd" d="M11 0C10.4477 0 10 0.447715 10 1V6.5C10 7.05686 9.80797 7.81518 9.29912 8.41656C8.81999 8.98281 7.9854 9.5 6.49993 9.5C5.94765 9.5 5.50007 9.94771 5.50007 10.5C5.50007 11.0523 5.94765 11.5 6.49993 11.5C8.51439 11.5 9.93005 10.7672 10.8259 9.70844C11.692 8.68482 12 7.44314 12 6.5V1C12 0.447715 11.5523 0 11 0Z" fill="white"/>
      </g>
    </g>
  </svg>

  <svg id="watch" viewBox="0 0 27 31" fill="none" xmlns="http://www.w3.org/2000/svg">
    <path id="Vector" d="M5.55784 0C4.49108 0 4.49108 1.5831 5.55784 1.5831H12.2251V3.18731C5.39783 3.62002 0 9.41417 0 16.4854C0 20.4959 1.74949 24.1159 4.51241 26.5539C4.99246 26.976 5.05646 27.7254 4.61909 28.1897L3.08295 29.7412C2.33621 30.4272 3.44565 31.4931 4.11771 30.7438L6.12323 28.7069C6.47526 28.3692 6.99798 28.2847 7.43535 28.4958C9.16007 29.3397 11.0564 29.784 12.9805 29.795C14.9046 29.8059 16.8059 29.3833 18.5404 28.5591C18.9671 28.348 19.5005 28.4325 19.8418 28.7702L21.7833 30.7438C22.4661 31.377 23.4475 30.4272 22.8288 29.7412L21.378 28.2636C20.9299 27.8098 20.9939 27.0605 21.4846 26.6277C22.9403 25.3585 24.1047 23.7959 24.8995 22.0447C25.6944 20.2936 26.1014 18.3944 26.0931 16.4748C26.0931 9.40362 20.6632 3.59891 13.8253 3.18731V1.5831H20.4925C21.5593 1.5831 21.5593 0 20.4925 0H5.55784ZM1.44013 16.4748C1.44013 9.94187 6.63528 4.65431 13.0465 4.65431C19.4471 4.65431 24.6423 9.94187 24.6423 16.4748C24.6423 23.0183 19.4471 28.3164 13.0465 28.3164C6.64594 28.3164 1.44013 23.0183 1.44013 16.4748ZM12.2358 8.37988C12.2358 7.28226 13.8999 7.28226 13.8999 8.37988V17.0131C13.8999 17.237 13.81 17.4517 13.65 17.6101C13.4899 17.7684 13.2729 17.8574 13.0465 17.8574C12.8333 17.8574 12.6287 17.7743 12.477 17.6262C12.3253 17.478 12.2386 17.2767 12.2358 17.0658V8.37988ZM7.24333 10.9973C7.55172 10.9973 7.84748 10.8761 8.06554 10.6603C8.2836 10.4446 8.40611 10.152 8.40611 9.84688C8.40611 9.54178 8.2836 9.24918 8.06554 9.03344C7.84748 8.8177 7.55172 8.6965 7.24333 8.6965C6.95553 8.72386 6.68836 8.85633 6.49394 9.06805C6.29952 9.27977 6.1918 9.55556 6.1918 9.84161C6.1918 10.1277 6.29952 10.4034 6.49394 10.6152C6.68836 10.8269 6.95553 10.9593 7.24333 10.9867V10.9973ZM18.8391 10.9973C19.1475 10.9973 19.4432 10.8761 19.6613 10.6603C19.8793 10.4446 20.0018 10.152 20.0018 9.84688C20.0018 9.54178 19.8793 9.24918 19.6613 9.03344C19.4432 8.8177 19.1475 8.6965 18.8391 8.6965C18.5513 8.72386 18.2841 8.85633 18.0897 9.06805C17.8953 9.27977 17.7875 9.55556 17.7875 9.84161C17.7875 10.1277 17.8953 10.4034 18.0897 10.6152C18.2841 10.8269 18.5513 10.9593 18.8391 10.9867V10.9973ZM8.40611 23.5882C8.40611 25.1185 6.08056 25.1185 6.08056 23.5882C6.08056 22.0579 8.40611 22.0579 8.40611 23.5882ZM13.0465 27.0288C13.2079 27.0441 13.3707 27.0259 13.5245 26.9754C13.6783 26.9248 13.8197 26.843 13.9397 26.7352C14.0596 26.6273 14.1555 26.4959 14.2211 26.3493C14.2867 26.2026 14.3206 26.044 14.3206 25.8837C14.3206 25.7233 14.2867 25.5648 14.2211 25.4181C14.1555 25.2715 14.0596 25.14 13.9397 25.0322C13.8197 24.9244 13.6783 24.8426 13.5245 24.792C13.3707 24.7414 13.2079 24.7232 13.0465 24.7386C12.7587 24.7659 12.4916 24.8984 12.2971 25.1101C12.1027 25.3219 11.995 25.5976 11.995 25.8837C11.995 26.1697 12.1027 26.4455 12.2971 26.6572C12.4916 26.869 12.7587 27.0014 13.0465 27.0288ZM4.92845 16.6437C4.94396 16.8033 4.92557 16.9643 4.87445 17.1165C4.82334 17.2687 4.74064 17.4086 4.63165 17.5273C4.52267 17.646 4.3898 17.7408 4.24159 17.8057C4.09338 17.8706 3.93309 17.9041 3.77101 17.9041C3.60894 17.9041 3.44865 17.8706 3.30044 17.8057C3.15222 17.7408 3.01936 17.646 2.91038 17.5273C2.80139 17.4086 2.71869 17.2687 2.66757 17.1165C2.61646 16.9643 2.59807 16.8033 2.61357 16.6437C2.64123 16.3589 2.77513 16.0946 2.98913 15.9023C3.20313 15.7099 3.48189 15.6033 3.77101 15.6033C4.06014 15.6033 4.3389 15.7099 4.5529 15.9023C4.7669 16.0946 4.90079 16.3589 4.92845 16.6437ZM22.3167 17.794C22.4781 17.8094 22.6408 17.7912 22.7947 17.7406C22.9485 17.6901 23.0899 17.6082 23.2098 17.5004C23.3298 17.3926 23.4257 17.2611 23.4913 17.1145C23.5569 16.9679 23.5907 16.8093 23.5907 16.6489C23.5907 16.4886 23.5569 16.33 23.4913 16.1834C23.4257 16.0367 23.3298 15.9053 23.2098 15.7975C23.0899 15.6896 22.9485 15.6078 22.7947 15.5573C22.6408 15.5067 22.4781 15.4885 22.3167 15.5038C22.0289 15.5312 21.7617 15.6637 21.5673 15.8754C21.3729 16.0871 21.2652 16.3629 21.2652 16.6489C21.2652 16.935 21.3729 17.2108 21.5673 17.4225C21.7617 17.6342 22.0289 17.7667 22.3167 17.794ZM20.0018 23.5987C20.0018 25.1185 17.6763 25.1185 17.6763 23.5882C17.6763 22.0579 20.0018 22.0579 20.0018 23.5882V23.5987Z" fill="white"/>
  </svg>

  <svg id="thumb" viewBox="0 0 40 40" fill="none" xmlns="http://www.w3.org/2000/svg">
    <g id="thumb">
      <rect x="1" y="1" width="38" height="38" rx="19" fill="white"/>
      <g id="Vector 1">
        <path d="M16 11L8 20L16 29V11Z" fill="#666666"/>
        <path d="M32 20L24 11V29L32 20Z" fill="#666666"/>
      </g>
      <rect x="1" y="1" width="38" height="38" rx="19" stroke="#666666" stroke-width="2"/>
    </g>
  </svg>

  <svg id="gift" viewBox="0 0 78 81" fill="none" xmlns="http://www.w3.org/2000/svg">
    <g id="icon_gift">
      <path id="Vector" d="M64.0156 35.6325H14.031C12.2766 35.6325 10.8494 34.2144 10.8494 32.4709V22.9989C10.8494 21.2554 12.2766 19.8367 14.031 19.8367H64.0149C65.7687 19.8367 67.1953 21.2554 67.1953 22.9989V32.4715C67.1959 34.2144 65.7693 35.6325 64.0156 35.6325ZM14.031 22.2598C13.6276 22.2598 13.2869 22.5984 13.2869 22.9989V32.4715C13.2869 32.8786 13.6208 33.21 14.031 33.21H64.0149C64.4244 33.21 64.7578 32.8786 64.7578 32.4715V22.9989C64.7578 22.5978 64.4171 22.2598 64.0149 22.2598H14.031Z" fill="white"/>
      <path id="Vector_2" d="M57.0447 68.0821H20.999C17.6218 68.0821 14.8741 65.3512 14.8741 61.9933V34.421C14.8741 33.7523 15.4201 33.2095 16.0929 33.2095C16.7656 33.2095 17.3116 33.7523 17.3116 34.421V61.9933C17.3116 64.0148 18.9661 65.6589 20.999 65.6589H57.0447C59.077 65.6589 60.7308 64.0148 60.7308 61.9933V34.421C60.7308 33.7523 61.2768 33.2095 61.9496 33.2095C62.6223 33.2095 63.1683 33.7523 63.1683 34.421V61.9933C63.1683 65.3512 60.4213 68.0821 57.0447 68.0821Z" fill="white"/>
      <path id="Vector_3" d="M39.0225 68.0821C38.3498 68.0821 37.8038 67.5399 37.8038 66.8705V34.421C37.8038 33.7523 38.3498 33.2095 39.0225 33.2095C39.6953 33.2095 40.2413 33.7523 40.2413 34.421V66.8699C40.2413 67.5399 39.6959 68.0821 39.0225 68.0821Z" fill="white"/>
      <g id="Group">
        <path id="Vector_4" d="M23.8113 22.2556C19.9966 20.2008 18.5731 15.4442 20.6383 11.6513C22.7022 7.86033 27.4864 6.44461 31.303 8.4958C37.117 11.6265 40.2565 20.3607 40.3869 20.7308L38.0877 21.5347C38.0585 21.4523 35.1256 13.31 30.1433 10.627C27.5078 9.21063 24.2062 10.1884 22.7821 12.8047C21.3567 15.4236 22.339 18.7069 24.9734 20.1251L23.8113 22.2556Z" fill="white"/>
        <path id="Vector_5" d="M54.2313 22.2556L53.071 20.1244C54.3477 19.4369 55.2782 18.2974 55.6926 16.9156C56.1063 15.5332 55.9534 14.0732 55.2617 12.8053C54.5719 11.5362 53.4263 10.6118 52.0363 10.2005C50.6457 9.78913 49.1783 9.94058 47.9023 10.6269C42.9201 13.3093 39.9871 21.4517 39.9579 21.5341L37.6587 20.7302C37.7891 20.3601 40.928 11.6259 46.7421 8.49578C48.5897 7.50109 50.7182 7.28179 52.7316 7.87788C54.7468 8.47337 56.4061 9.81397 57.4061 11.6513C58.4073 13.4881 58.6285 15.6029 58.0289 17.6062C57.4287 19.6089 56.0801 21.2597 54.2313 22.2556Z" fill="white"/>
      </g>
      <path id="Vector_6" d="M61.9496 51.8567H16.0929C15.4201 51.8567 14.8741 51.3142 14.8741 50.6456C14.8741 49.9771 15.4201 49.4346 16.0929 49.4346H61.9496C62.6223 49.4346 63.1683 49.9771 63.1683 50.6456C63.1683 51.3142 62.6229 51.8567 61.9496 51.8567Z" fill="white"/>
    </g>
  </svg>

  <svg id="email" viewBox="0 0 21 20" fill="none" xmlns="http://www.w3.org/2000/svg">
    <g id="email-stroke 1">
      <path id="Vector" d="M1.50034 8.5V16.5H18.5041V8.5M1.50034 3.5H18.5041V5.5L10.0022 11.5L1.50034 5.5V3.5Z" stroke="black" stroke-linecap="round" stroke-linejoin="round"/>
    </g>
  </svg>

  <svg id="phone" viewBox="0 0 21 20" fill="none" xmlns="http://www.w3.org/2000/svg">
    <g id="phone-stroke 1">
      <path id="Vector" d="M10.0022 10H18.5041M18.5041 10L16.0036 7.5M18.5041 10L16.0036 12.5M8.50191 2.5V7.5H5.50124V12.5H8.50191V17.5H6.00135C4.50102 17.5 3.50079 16.5 3.50079 15V5C3.50079 3.5 4.50102 2.5 6.00135 2.5H8.50191Z" stroke="black" stroke-linecap="round" stroke-linejoin="round"/>
    </g>
  </svg>

  <svg id="check-mark" width="24" height="19" viewBox="0 0 24 19" fill="none" xmlns="http://www.w3.org/2000/svg">
    <path d="M9 15.499L1.4 6.90101L0 8.48485L9 18.6667L24 1.69697L22.6 0L9 15.499Z" fill="#68B738"/>
  </svg>
</svg>
