<svg xmlns="http://www.w3.org/2000/svg"><style>:root svg:not(:target){display:none}</style><svg id="program-slim" viewBox="0 0 36 50" fill="none" xmlns="http://www.w3.org/2000/svg"><g id="cat-slim" clip-path="url(#clip0_135_3256)"><path id="Vector" d="M28.203 0h-.195c-.33.187-.593.474-.75.82a8.028 8.028 0 0 0-.664 1.757.84.84 0 0 1-.761.691 3.77 3.77 0 0 0-2.69 1.948c-.372.661-.69 1.35-.952 2.062-.73 1.897-1.29 3.856-1.98 5.768-.324.872-.339.872-1.316.872-1.168 0-1.085-.18-1.1 1.108 0 .407.123.613.555.593.133 0 .334-.067.385.108.052.175-.123.252-.226.355a4.626 4.626 0 0 1-2.227 1.258c-.977.263-1.975.47-2.926.789-2.443.82-4.7 1.964-6.46 3.902a14.44 14.44 0 0 0-2.437 4.041C2.57 30.526 1.656 35.217.946 39.954a97.064 97.064 0 0 0-.75 6.7C.102 47.759 0 48.877 0 50h17.141a1.126 1.126 0 0 0-.118-.66 2.577 2.577 0 0 0-1.97-1.582c-.36-.083-.401-.191-.18-.475.36-.482.637-1.022.818-1.597.838-2.48 1.162-5.067 1.568-7.63.23-1.956.83-3.85 1.77-5.582a11.126 11.126 0 0 1 2.874-3.283c.427-.325.443-.325.515.227.051.366.061.742.087 1.113a48.166 48.166 0 0 1-.092 7.31 31.866 31.866 0 0 0-.078 5.67A38.826 38.826 0 0 0 23.503 50h6.84a2.79 2.79 0 0 0-2.18-2.289 4.62 4.62 0 0 0-1.934.103c-.309.073-.438 0-.463-.335a29.113 29.113 0 0 1 .514-8.154 91.803 91.803 0 0 0 1.574-9.371 9.163 9.163 0 0 1 1.172-3.609c.612-1.092 1.147-2.226 1.749-3.324a3.031 3.031 0 0 0 .216-2.676c-.139-.366-.273-.737-.442-1.087-.515-1.005-1.029-2-1.502-3.016-.252-.515-.196-.577.365-.593.838 0 .838 0 .854-.845v-.34c0-.356-.134-.552-.515-.516h-.781c-.355 0-.458-.149-.37-.515a3.217 3.217 0 0 1 2.638-2.284 11.291 11.291 0 0 1 3.404.222.513.513 0 0 0 .643-.33c.206-.515.432-1.03.664-1.546a.517.517 0 0 0-.052-.588c-1.646-2.093-3.43-4.046-5.863-5.299a.767.767 0 0 1-.452-.577 10.123 10.123 0 0 0-.653-2.144A1.803 1.803 0 0 0 28.203 0Z" fill="#000"/></g><defs><clipPath id="clip0_135_3256"><path fill="#fff" d="M0 0h36v50H0z"/></clipPath></defs></svg><svg id="program-pro-mobile" viewBox="0 0 67 28" fill="none" xmlns="http://www.w3.org/2000/svg"><g id="cat-pro" clip-path="url(#clip0_135_3258)"><path d="M60.56 2.878a7.601 7.601 0 0 1 2.25-2.3c.5-.35.8-.35 1.1.3.4.95.75 1.95.45 3a1.144 1.144 0 0 0 .2 1.05c.3.4.55.8.8 1.15a3.135 3.135 0 0 1 .45 3.1 2.716 2.716 0 0 0-.1 1.55c.099.495.099 1.005 0 1.5a1.875 1.875 0 0 1-1.35 1.6c-.64.122-1.211.479-1.6 1a.525.525 0 0 1-.45.25c-.6.1-2.1-1.25-2.1-1.85v-.3c.05-1.8-.05-1.95-1.7-2.7a2.196 2.196 0 0 1-.9-.6c-.3-.4-.7-.35-1.15-.2-.45.15-.7.45-.65.95.15 1.21.2 2.432.15 3.65a.94.94 0 0 0 .1.4c1.55 2.25 2.15 4.9 2.9 7.45.6 1.95 1.7 3 3.7 3.15.32.026.637.076.95.15a2.08 2.08 0 0 1 1.7 1.6c.35 1.05.15 1.3-.9 1.3h-3.25a1.62 1.62 0 0 1-1.15-.4 5.856 5.856 0 0 0-1.7-1 3.63 3.63 0 0 1-1.7-1.3 14.307 14.307 0 0 0-2-2.25c-1.4-1.45-2.9-2.85-4.2-4.35a5.69 5.69 0 0 1-1.6-3.8c0-.45-.1-.65-.6-.45a.965.965 0 0 1-.5.15c-1.4 0-2.1.85-2.6 2.1-.45 1.05-1.05 2.05-1.6 3.1a5.195 5.195 0 0 0-.5 2.1c0 1.2.3 1.6 1.4 2 .7.25 1.35.5 1.7 1.2.4.8.3 1-.55 1.05h-3.4a.94.94 0 0 1-.95-.55l-.9-1.5a3.025 3.025 0 0 1-.35-2.7 5.93 5.93 0 0 0 .05-2.65 4.21 4.21 0 0 1 .85-3.5c.3-.35.3-.5-.2-.6a25.03 25.03 0 0 1-5.9-2.05.05.05 0 0 1-.05-.05c-1.6-.6-1.9-.5-2.35 1.15-.4 1.4-.8 2.8-1.1 4.25-.35 1.6.05 3.1.55 4.6.2.6.8.55 1.25.7 1 .3 1.85.7 2.25 1.75.35.8.3.9-.55.9-.85 0-1.7-.05-2.6 0a3.32 3.32 0 0 1-2.1-.7c-2.4-1.6-3.1-4.05-3.3-6.7-.1-1.65-1-2.95-2.05-4.2-.2-.25-.4-.35-.7-.15a22.156 22.156 0 0 1-3.35 1.5 13.355 13.355 0 0 0-6.1 4.4 5.315 5.315 0 0 0-1.1 2.55c-.15.9.1 1.3 1 1.55s1.35.75 1.45 1.7c.05.4-.1.6-.5.6h-4.05a.824.824 0 0 1-.65-.4 4.28 4.28 0 0 1-.95-2.75 25.301 25.301 0 0 1 .45-5.15 3.152 3.152 0 0 1 1.7-2.4c2.95-1.4 4.5-4.05 5.9-6.8.3-.55.05-.65-.45-.6a8.236 8.236 0 0 0-3.85 1.6 35.315 35.315 0 0 0-4.15 3.55 8.335 8.335 0 0 1-5.15 2.45c-3.65.2-5.35-1.85-5.2-5.15a4.845 4.845 0 0 1 1.2-3.05 2.125 2.125 0 0 1 2.25-.75c.75.2.95.6.65 1.35-.15.3-.35.55-.5.85a3.75 3.75 0 0 0-.5 1c-.55 1.5.2 2.55 1.75 2.7 1.65.15 3-.55 4.25-1.55a22.466 22.466 0 0 0 4-4.15 10.395 10.395 0 0 1 7.2-4.05c1.15-.15 2.15-.65 3.25-.95 2.056-.627 4.199-.93 6.35-.9a6.5 6.5 0 0 0 2.9-.55c2.45-1 5-1 7.55-.5 2 .4 4 .9 5.95 1.4a8.29 8.29 0 0 0 3.5-.1 33.894 33.894 0 0 1 6.7-1 9.08 9.08 0 0 1 4.3.85c1 .45 1 .45.75 1.4Z" fill="#000"/></g><defs><clipPath id="clip0_135_3258"><path fill="#fff" d="M0 0h67v28H0z"/></clipPath></defs></svg><svg id="program-pro" viewBox="0 0 268 112" fill="none" xmlns="http://www.w3.org/2000/svg"><path d="M246.236 11.514a30.402 30.402 0 0 1 9-9.2c2-1.4 3.2-1.4 4.4 1.2 1.6 3.8 3 7.8 1.8 12a4.59 4.59 0 0 0 .8 4.2c1.2 1.6 2.2 3.2 3.2 4.6a12.541 12.541 0 0 1 1.8 12.4 10.865 10.865 0 0 0-.4 6.2c.4 1.98.4 4.02 0 6a7.494 7.494 0 0 1-5.4 6.4 10.422 10.422 0 0 0-6.4 4 2.099 2.099 0 0 1-1.8 1c-2.4.4-8.4-5-8.4-7.4v-1.2c.2-7.2-.2-7.8-6.8-10.8a8.783 8.783 0 0 1-3.6-2.4c-1.2-1.6-2.8-1.4-4.6-.8-1.8.6-2.8 1.8-2.6 3.8.604 4.841.804 9.725.6 14.6.014.556.15 1.103.4 1.6 6.2 9 8.6 19.6 11.6 29.8 2.4 7.8 6.8 12 14.8 12.6 1.281.102 2.551.302 3.8.6a8.318 8.318 0 0 1 6.8 6.4c1.4 4.2.6 5.2-3.6 5.2h-13a6.481 6.481 0 0 1-4.6-1.6 23.39 23.39 0 0 0-6.8-4 14.53 14.53 0 0 1-6.8-5.2 57.165 57.165 0 0 0-8-9c-5.6-5.8-11.6-11.4-16.8-17.4a22.767 22.767 0 0 1-6.4-15.2c0-1.8-.4-2.6-2.4-1.8-.598.38-1.29.587-2 .6-5.6 0-8.4 3.4-10.4 8.4-1.8 4.2-4.2 8.2-6.4 12.4a20.802 20.802 0 0 0-2 8.4c0 4.8 1.2 6.4 5.6 8 2.8 1 5.4 2 6.8 4.8 1.6 3.2 1.2 4-2.2 4.2h-13.6a3.762 3.762 0 0 1-3.8-2.2l-3.6-6a12.1 12.1 0 0 1-1.4-10.8c.866-3.473.934-7.097.2-10.6a16.841 16.841 0 0 1 3.4-14c1.2-1.4 1.2-2-.8-2.4a100.13 100.13 0 0 1-23.6-8.2.2.2 0 0 1-.2-.2c-6.4-2.4-7.6-2-9.4 4.6-1.6 5.6-3.2 11.2-4.4 17-1.4 6.4.2 12.4 2.2 18.4.8 2.4 3.2 2.2 5 2.8 4 1.2 7.4 2.8 9 7 1.4 3.2 1.2 3.6-2.2 3.6-3.4 0-6.8-.2-10.4 0a13.288 13.288 0 0 1-8.4-2.8c-9.6-6.4-12.4-16.2-13.2-26.8-.4-6.6-4-11.8-8.2-16.8-.8-1-1.6-1.4-2.8-.6a88.615 88.615 0 0 1-13.4 6 53.42 53.42 0 0 0-24.4 17.6 21.26 21.26 0 0 0-4.4 10.2c-.6 3.6.4 5.2 4 6.2s5.4 3 5.8 6.8c.2 1.6-.4 2.4-2 2.4h-16.2a3.301 3.301 0 0 1-2.6-1.6 17.122 17.122 0 0 1-3.8-11 101.19 101.19 0 0 1 1.8-20.6 12.6 12.6 0 0 1 6.8-9.6c11.8-5.6 18-16.2 23.6-27.2 1.2-2.2.2-2.6-1.8-2.4a32.94 32.94 0 0 0-15.4 6.4 141.23 141.23 0 0 0-16.6 14.2 33.34 33.34 0 0 1-20.6 9.8c-14.6.8-21.4-7.4-20.8-20.6a19.38 19.38 0 0 1 4.8-12.2 8.5 8.5 0 0 1 9-3c3 .8 3.8 2.4 2.6 5.4-.6 1.2-1.4 2.2-2 3.4a14.998 14.998 0 0 0-2 4c-2.2 6 .8 10.2 7 10.8 6.6.6 12-2.2 17-6.2a89.88 89.88 0 0 0 16-16.6 41.579 41.579 0 0 1 28.8-16.2c4.6-.6 8.6-2.6 13-3.8a83.015 83.015 0 0 1 25.4-3.6 25.996 25.996 0 0 0 11.6-2.2c9.8-4 20-4 30.2-2 8 1.6 16 3.6 23.8 5.6a33.16 33.16 0 0 0 14-.4 135.592 135.592 0 0 1 26.8-4 36.318 36.318 0 0 1 17.2 3.4c4 1.8 4 1.8 3 5.6Z" fill="#000"/></svg><svg id="arrow" viewBox="0 0 32 12" fill="none" xmlns="http://www.w3.org/2000/svg"><path stroke="#000" stroke-width="2" d="M0 6h26"/><path d="m32 6-6.75 5.196V.804L32 6Z" fill="#000"/></svg><svg id="nutrition" viewBox="0 0 25 28" fill="none" xmlns="http://www.w3.org/2000/svg"><path d="M24.844.767c-.1-.45-.48-.767-.912-.767h-.005C18.989.033 6.982.916 2.134 8.38c-2.518 3.878-2.735 8.913-.644 14.965.016.047.048.079.07.122C.813 25.44.523 26.753.516 26.79c-.11.54.214 1.072.72 1.188a.88.88 0 0 0 .197.022c.433 0 .822-.321.916-.79.02-.102 2.409-10.373 10.854-16.378.431-.306.547-.927.26-1.387-.288-.46-.87-.585-1.3-.277-4.79 3.405-7.739 8.008-9.473 11.656-1.242-4.578-.916-8.377.986-11.305 3.743-5.764 12.622-7.154 17.982-7.448C20.505 3.872 19.245 7.174 19.245 13c0 3.12-.83 5.522-2.465 7.14-2.62 2.591-6.88 2.834-9.993 2.584-.518-.045-.967.371-1.006.922-.04.55.347 1.03.863 1.072.623.051 1.29.082 1.981.082 3.17 0 6.87-.663 9.43-3.194 2.034-2.011 3.065-4.906 3.065-8.605 0-9.099 3.216-11.096 3.232-11.105.39-.209.594-.677.492-1.129Z" fill="#fff"/></svg><svg id="powder" viewBox="0 0 27 29" fill="none" xmlns="http://www.w3.org/2000/svg"><path d="M11.3 0C9.607 0 8.288 1.383 8.288 3.134s1.319 3.134 3.014 3.134c1.695 0 3.013-1.383 3.013-3.134S12.996 0 11.301 0Zm0 1.198c1.037 0 1.79.858 1.79 1.936 0 1.014-.82 1.936-1.79 1.936-1.035 0-1.789-.858-1.789-1.936 0-1.014.81-1.936 1.79-1.936ZM0 25.164c0 1.198.424 2.212 1.413 3.042 1.035.866 2.26.792 2.26.792h19.776c.81 0 1.883-.387 2.731-1.474.876-1.014.82-2.397.82-2.397V7.614c0-.443-.114-.609-.773-.609-.66 0-.716.277-.716.6v17.513c-.018.304-.075 1.106-.772 1.751-.763.636-1.507.553-1.507.553s-18.834 0-19.776-.027c-.358-.065-.942-.194-1.507-.922-.527-.738-.423-1.66-.423-1.66V7.3c0-.47-.245-.645-.754-.645-.508 0-.772.175-.772.59v17.919ZM16.951 8.572c-1.13.24-2.26.387-4.426 2.397-2.166 2.028-3.767 1.936-5.368 1.843-1.6-.092-3.296-1.567-3.578-1.935-.349-.36-.942-.12-1.13.12-.16.24-.16.654.112 1.014 1.319 1.198 2.543 2.12 4.897 2.304 2.355.221 4.615-.82 6.122-2.304 1.506-1.475 2.26-1.752 3.39-1.936 2.73-.424 4.332.627 5.274 1.29 1.035 1.106 1.318.793 1.6.48.566-.729-.235-1.29-1.13-1.936-1.883-1.198-3.672-1.66-5.744-1.29l-.019-.047Zm-9.417 7.282c-1.224 0-2.166 1.014-2.166 2.305 0 1.29.942 2.304 2.166 2.304S9.7 19.449 9.7 18.159c0-1.29-.942-2.305-2.166-2.305Zm12.242.793c-1.6 0-2.92 1.383-2.92 3.042 0 1.659 1.32 3.041 2.92 3.041 1.601 0 2.92-1.382 2.92-3.041 0-1.66-1.319-3.042-2.92-3.042Zm0 1.475c.829 0 1.507.71 1.507 1.567 0 .875-.678 1.567-1.507 1.567-.828 0-1.506-.71-1.506-1.567 0-.876.678-1.567 1.506-1.567Z" fill="#fff"/></svg><svg id="eat" viewBox="0 0 26 30" fill="none" xmlns="http://www.w3.org/2000/svg"><g id="icon_eat"><path id="Knife" fill-rule="evenodd" clip-rule="evenodd" d="M19.117.076a1 1 0 0 1 1.09.217c.909.908 2.097 2.878 3.059 5.918C24.237 9.28 25 13.508 25 19a1 1 0 0 1-1 1h-3.5v9a1 1 0 1 1-2 0V1a1 1 0 0 1 .617-.924ZM20.5 18h2.491c-.086-4.816-.786-8.512-1.632-11.186-.278-.88-.57-1.643-.859-2.295V18Z" fill="#fff"/><g id="Fork"><path fill-rule="evenodd" clip-rule="evenodd" d="M6.5 0a1 1 0 0 1 1 1v28a1 1 0 1 1-2 0V1a1 1 0 0 1 1-1Z" fill="#fff"/><path fill-rule="evenodd" clip-rule="evenodd" d="M2 0a1 1 0 0 1 1 1v5.5c0 .557.192 1.315.7 1.917.48.566 1.314 1.083 2.8 1.083a1 1 0 1 1 0 2c-2.015 0-3.43-.733-4.326-1.792A5.068 5.068 0 0 1 1 6.5V1a1 1 0 0 1 1-1Z" fill="#fff"/><path fill-rule="evenodd" clip-rule="evenodd" d="M11 0a1 1 0 0 0-1 1v5.5a3.07 3.07 0 0 1-.7 1.917C8.82 8.983 7.984 9.5 6.5 9.5a1 1 0 0 0 0 2c2.014 0 3.43-.733 4.326-1.792A5.068 5.068 0 0 0 12 6.5V1a1 1 0 0 0-1-1Z" fill="#fff"/></g></g></svg><svg id="watch" viewBox="0 0 27 31" fill="none" xmlns="http://www.w3.org/2000/svg"><path d="M5.558 0c-1.067 0-1.067 1.583 0 1.583h6.667v1.604C5.398 3.62 0 9.414 0 16.485c0 4.01 1.75 7.63 4.512 10.069.48.422.544 1.171.107 1.636L3.083 29.74c-.747.686.363 1.752 1.035 1.003l2.005-2.037a1.164 1.164 0 0 1 1.312-.211 12.785 12.785 0 0 0 11.105.063c.427-.211.96-.127 1.302.211l1.941 1.974c.683.633 1.665-.317 1.046-1.003l-1.451-1.477c-.448-.454-.384-1.203.107-1.636a13.465 13.465 0 0 0 3.415-4.583 13.333 13.333 0 0 0 1.193-5.57c0-7.071-5.43-12.876-12.268-13.288V1.583h6.668c1.066 0 1.066-1.583 0-1.583H5.557ZM1.44 16.475c0-6.533 5.195-11.82 11.607-11.82 6.4 0 11.595 5.287 11.595 11.82 0 6.543-5.195 11.841-11.595 11.841-6.401 0-11.607-5.298-11.607-11.841ZM12.236 8.38c0-1.098 1.664-1.098 1.664 0v8.633a.84.84 0 0 1-.25.597.858.858 0 0 1-.604.247.815.815 0 0 1-.569-.23.798.798 0 0 1-.241-.561V8.38Zm-4.993 2.617c.309 0 .604-.12.823-.337a1.144 1.144 0 0 0 0-1.627 1.17 1.17 0 0 0-.823-.336c-.287.027-.555.16-.75.371a1.144 1.144 0 0 0 0 1.547c.195.212.463.344.75.372v.01Zm11.596 0c.309 0 .604-.12.822-.337a1.144 1.144 0 0 0 0-1.627 1.17 1.17 0 0 0-.822-.336c-.288.027-.555.16-.75.371a1.144 1.144 0 0 0 0 1.547c.195.212.462.344.75.372v.01ZM8.406 23.588c0 1.53-2.325 1.53-2.325 0s2.325-1.53 2.325 0Zm4.64 3.44a1.177 1.177 0 0 0 .894-.293 1.153 1.153 0 0 0 .38-.851 1.14 1.14 0 0 0-.38-.852 1.167 1.167 0 0 0-.893-.293c-.288.027-.555.16-.75.371a1.144 1.144 0 0 0 0 1.547c.195.212.462.344.75.372ZM4.928 16.645a1.139 1.139 0 0 1-.296.883 1.162 1.162 0 0 1-.861.377 1.173 1.173 0 0 1-.86-.377 1.148 1.148 0 0 1-.297-.883c.027-.285.161-.55.375-.742a1.17 1.17 0 0 1 1.564 0c.214.193.348.457.375.742Zm17.389 1.15a1.173 1.173 0 0 0 .893-.294 1.15 1.15 0 0 0 .38-.851 1.14 1.14 0 0 0-.38-.852 1.163 1.163 0 0 0-.893-.293c-.288.027-.555.16-.75.371a1.144 1.144 0 0 0 0 1.547c.195.212.462.345.75.372Zm-2.315 5.805c0 1.52-2.326 1.52-2.326-.01 0-1.531 2.326-1.531 2.326 0v.01Z" fill="#fff"/></svg><svg id="thumb" viewBox="0 0 40 40" fill="none" xmlns="http://www.w3.org/2000/svg"><rect x="1" y="1" width="38" height="38" rx="19" fill="#fff"/><g id="Vector 1"><path d="m16 11-8 9 8 9V11ZM32 20l-8-9v18l8-9Z" fill="#666"/></g><rect x="1" y="1" width="38" height="38" rx="19" stroke="#666" stroke-width="2"/></svg><svg id="gift" viewBox="0 0 78 81" fill="none" xmlns="http://www.w3.org/2000/svg"><g id="icon_gift"><path d="M64.016 35.633H14.03c-1.754 0-3.182-1.419-3.182-3.162v-9.472c0-1.744 1.428-3.162 3.182-3.162h49.984c1.754 0 3.18 1.418 3.18 3.162v9.473c0 1.742-1.426 3.16-3.18 3.16ZM14.03 22.26a.752.752 0 0 0-.744.739v9.473c0 .407.334.738.744.738h49.984c.41 0 .743-.331.743-.739V23c0-.401-.34-.74-.743-.74H14.03Z" fill="#fff"/><path id="Vector_2" d="M57.045 68.082H20.999c-3.377 0-6.125-2.73-6.125-6.089V34.421c0-.669.546-1.212 1.219-1.212s1.219.543 1.219 1.212v27.572c0 2.022 1.654 3.666 3.687 3.666h36.046c2.032 0 3.686-1.644 3.686-3.666V34.421c0-.669.546-1.212 1.219-1.212.672 0 1.218.543 1.218 1.212v27.572c0 3.358-2.747 6.09-6.123 6.09Z" fill="#fff"/><path id="Vector_3" d="M39.023 68.082a1.215 1.215 0 0 1-1.22-1.211V34.42c0-.669.547-1.212 1.22-1.212.672 0 1.218.543 1.218 1.212V66.87c0 .67-.545 1.212-1.218 1.212Z" fill="#fff"/><g id="Group"><path id="Vector_4" d="M23.811 22.256c-3.814-2.055-5.238-6.812-3.173-10.605 2.064-3.79 6.848-5.206 10.665-3.155 5.814 3.13 8.954 11.865 9.084 12.235l-2.3.804c-.029-.083-2.961-8.225-7.944-10.908-2.635-1.416-5.937-.439-7.36 2.178-1.426 2.619-.444 5.902 2.19 7.32l-1.162 2.13Z" fill="#fff"/><path id="Vector_5" d="m54.231 22.256-1.16-2.132a5.377 5.377 0 0 0 2.622-3.208 5.332 5.332 0 0 0-.431-4.11 5.382 5.382 0 0 0-3.226-2.605 5.423 5.423 0 0 0-4.134.426c-4.982 2.682-7.915 10.825-7.944 10.907l-2.3-.804c.131-.37 3.27-9.104 9.084-12.234a7.856 7.856 0 0 1 5.99-.618 7.8 7.8 0 0 1 4.674 3.773 7.726 7.726 0 0 1 .623 5.955 7.79 7.79 0 0 1-3.798 4.65Z" fill="#fff"/></g><path id="Vector_6" d="M61.95 51.857H16.093a1.215 1.215 0 0 1-1.219-1.211c0-.669.546-1.211 1.219-1.211H61.95c.672 0 1.218.542 1.218 1.21 0 .67-.545 1.212-1.218 1.212Z" fill="#fff"/></g></svg><svg id="email" viewBox="0 0 21 20" fill="none" xmlns="http://www.w3.org/2000/svg"><path d="M1.5 8.5v8h17.004v-8M1.5 3.5h17.004v2l-8.502 6-8.502-6v-2Z" stroke="#000" stroke-linecap="round" stroke-linejoin="round" id="email-stroke 1"/></svg><svg id="phone" viewBox="0 0 21 20" fill="none" xmlns="http://www.w3.org/2000/svg"><path d="M10.002 10h8.502m0 0-2.5-2.5m2.5 2.5-2.5 2.5m-7.502-10v5h-3v5h3v5h-2.5C4.5 17.5 3.5 16.5 3.5 15V5c0-1.5 1-2.5 2.5-2.5h2.5Z" stroke="#000" stroke-linecap="round" stroke-linejoin="round" id="phone-stroke 1"/></svg><svg id="check-mark" width="24" height="19" viewBox="0 0 24 19" fill="none" xmlns="http://www.w3.org/2000/svg"><path d="M9 15.499 1.4 6.901 0 8.485l9 10.182 15-16.97L22.6 0 9 15.499Z" fill="#68B738"/></svg></svg>